/* XPM */

static const char *
hidden_data[] = {
  /* width height num_colors chars_per_pixel x_hot y_hot */
  "16 16 5 1 0 0",

  /* colors */
  ". s symbol1 c #000000 m black",
  "# s symbol2 c #ffffff m white",
  "a s symbol3 c #0000ff m black",
  "b s symbol4 c #a52a2a m black",
  "  s mask c none",

  /* pixels */
  "                ",
  "        ....    ",
  "       .####.   ",
  "      .##aa##.  ",
  "     .###aa###. ",
  "     .#aaaaaa#. ",
  "     .#aaaaaa#. ",
  "     .###aa###. ",
  "      .##aa##.  ",
  "     .b.####.   ",
  "    .b. ....    ",
  "   .b.          ",
  "  .b.           ",
  "   .            ",
  "                ",
  "                ",
};
