/* XPM */

static const char *
image_data[] = {
  /* width height num_colors chars_per_pixel x_hot y_hot */
  "16 16 8 1 0 0",

  /* colors */
  ". s symbol1 c #000000 m black",
  "# s symbol2 c #ffffff m white",
  "a s symbol3 c #ffff00 m white",
  "b s symbol4 c #00ff00 m black",
  "c s symbol5 c #0000ff m black",
  "d s symbol6 c #a52a2a m black",
  "e s symbol7 c #ffa500 m white",
  "  s mask c none",

  /* pixels */
  "       e  e  e  ",
  "        e e e   ",
  "         eee    ",
  "        eaaae   ",
  "      eeeaaaeee ",
  "   .    eaaae   ",
  "  .#.    eee    ",
  " .###.  e e e.  ",
  ".ddddd.e  e .#. ",
  "ddddddd.   .###.",
  "dddddddd. .ddddd",
  "ddddddddd.dddddd",
  "dddddddddd.ddddd",
  "................",
  "bbbbbb.cc.bbbbbb",
  "bbbbb.cc.bbbbbbb",
};
