<?xml version="1.0" encoding="windows-1252"?>
<!-- Generator: Adobe Illustrator 16.0.0, SVG Export Plug-In . SVG Version: 6.00 Build 0)  -->
<!DOCTYPE svg PUBLIC "-//W3C//DTD SVG 1.1//EN" "http://www.w3.org/Graphics/SVG/1.1/DTD/svg11.dtd">
<svg version="1.1" id="Capa_1" xmlns="http://www.w3.org/2000/svg" xmlns:xlink="http://www.w3.org/1999/xlink" x="0px" y="0px" width="485.211px" height="485.211px" viewBox="0 0 485.211 485.211" style="enable-background:new 0 0 485.211 485.211;" xml:space="preserve" hola_ext_inject="disabled">
<g>
	<path d="M485.211,90.978v242.607c0,16.759-13.563,30.321-30.322,30.321V151.629c0-33.465-27.224-60.651-60.653-60.651H60.651   c0-16.762,13.565-30.327,30.327-30.327h363.911C471.647,60.651,485.211,74.216,485.211,90.978z M150.681,181.956v-60.651H30.327   C13.562,121.305,0,134.867,0,151.629v242.608c0,16.76,13.564,30.322,30.327,30.322h363.909c16.759,0,30.326-13.562,30.326-30.322   V181.956H150.681z"/>
</g>
<g>
</g>
<g>
</g>
<g>
</g>
<g>
</g>
<g>
</g>
<g>
</g>
<g>
</g>
<g>
</g>
<g>
</g>
<g>
</g>
<g>
</g>
<g>
</g>
<g>
</g>
<g>
</g>
<g>
</g>
</svg>